<?xml version="1.0" encoding="UTF-8"?>
<svg width="980px" height="128px" viewBox="0 0 980 128" version="1.1" xmlns="http://www.w3.org/2000/svg" xmlns:xlink="http://www.w3.org/1999/xlink">
    <!-- Generator: Sketch 48.2 (47327) - http://www.bohemiancoding.com/sketch -->
    <title>balance</title>
    <desc>Created with Sketch.</desc>
    <defs></defs>
    <g id="Page-1" stroke="none" stroke-width="1" fill="none" fill-rule="evenodd">
        <g id="balance" fill="#18202A" fill-rule="nonzero">
            <path d="M337,36.042096 L361.120846,36.042096 C374.298111,36.042096 382.584428,40.9330441 382.584428,51.725467 C382.584428,57.4248363 379.108217,61.992416 374.378953,63.7305216 C379.552849,65.4686271 383.79706,70.3191542 383.79706,76.4227341 C383.79706,87.295999 376.076638,92.6315789 362.495162,92.6315789 L338,92.6315789 L337,36.042096 Z M361.929267,69.1065226 L349.277476,69.1065226 L349.277476,82.6879983 L361.929267,82.7284194 C368.15411,82.7284194 372.074953,81.2732611 372.074953,75.8568394 C372.074953,70.5616805 368.15411,69.1065226 361.929267,69.1065226 Z M360.797477,45.9856766 L349.277476,45.9856766 L349.277476,59.2033629 L360.837898,59.2033629 C366.456426,59.2033629 370.8219,58.0311522 370.8219,52.5338882 C370.8219,47.1983083 366.375584,45.9856766 360.797477,45.9856766 Z M431.615164,53.4635725 L431.615164,92.6315789 L421.307794,92.6315789 L421.307794,88.3065256 C418.761267,91.4593681 414.961688,93.6421053 409.585687,93.6421053 C398.793264,93.6421053 390.62821,84.7898934 390.62821,73.0273651 C390.62821,61.264837 398.793264,52.412625 409.585687,52.412625 C414.961688,52.412625 418.720846,54.5953622 421.307794,57.7886259 L421.307794,53.4635725 L431.615164,53.4635725 Z M411.525898,62.2349424 C405.341476,62.2349424 401.420633,67.0450486 401.420633,73.0273651 C401.420633,79.0096819 405.341476,83.8197881 411.525898,83.8197881 C417.548635,83.8197881 421.631162,79.2117871 421.631162,73.0273651 C421.631162,66.842943 417.548635,62.2349424 411.525898,62.2349424 Z M453.240423,34.4252536 L442.690526,34.4252536 L442.690526,92.6315789 L453.240423,92.6315789 L453.240423,34.4252536 Z M502.87748,53.4635725 L502.87748,92.6315789 L492.57011,92.6315789 L492.57011,88.3065256 C490.023583,91.4593681 486.224003,93.6421053 480.848003,93.6421053 C470.05558,93.6421053 461.890526,84.7898934 461.890526,73.0273651 C461.890526,61.264837 470.05558,52.412625 480.848003,52.412625 C486.224003,52.412625 489.983162,54.5953622 492.57011,57.7886259 L492.57011,53.4635725 L502.87748,53.4635725 Z M482.788214,62.2349424 C476.603791,62.2349424 472.682949,67.0450486 472.682949,73.0273651 C472.682949,79.0096819 476.603791,83.8197881 482.788214,83.8197881 C488.810951,83.8197881 492.893478,79.2117871 492.893478,73.0273651 C492.893478,66.842943 488.810951,62.2349424 482.788214,62.2349424 Z M535.739793,52.412625 C531.293476,52.412625 527.008844,53.9082042 524.219791,58.0715733 L524.219791,53.4635725 L513.952842,53.4635725 L513.952842,92.6315789 L524.502739,92.6315789 L524.502739,71.1679966 C524.502739,65.2665218 528.261897,62.3157845 532.789056,62.3157845 C537.599162,62.3157845 540.428636,65.4282061 540.428636,71.0871545 L540.428636,92.6315789 L550.978532,92.6315789 L550.978532,67.6917854 C550.978532,58.597047 544.632426,52.412625 535.739793,52.412625 Z M580.162529,52.412625 C567.672422,52.412625 559.305262,61.1839948 559.305262,73.0273651 C559.305262,84.9111565 567.672422,93.6421053 580.162529,93.6421053 C586.710741,93.6421053 592.208005,91.0147365 595.886321,86.2854727 L588.368004,79.8585243 C586.144846,82.2837878 583.23453,83.8197881 579.839161,83.8197881 C574.382318,83.8197881 570.057265,79.5755769 570.057265,73.0273651 C570.057265,66.5195746 574.422739,62.2349424 579.879582,62.2349424 C583.315372,62.2349424 585.861898,63.6092584 588.246741,66.1557851 L595.8459,59.8096788 C592.248426,55.0804149 586.710741,52.412625 580.162529,52.412625 Z M620.866529,52.412625 C632.144005,52.412625 639.864427,60.7797843 639.904848,72.986944 C639.904848,74.1995759 639.824006,75.6547341 639.702743,76.5439973 L611.933475,76.5439973 C613.065265,82.2029457 617.026528,84.6686302 621.998319,84.6686302 C625.393688,84.6686302 629.072004,83.2943141 631.901478,80.9094717 L638.0859,87.7002099 C633.639584,91.7827368 627.980635,93.6421053 621.392003,93.6421053 C609.386948,93.6421053 601.06021,85.4770516 601.06021,73.1486285 C601.06021,60.8202053 609.144422,52.412625 620.866529,52.412625 Z M620.785687,61.5073633 C615.813897,61.5073633 612.90358,64.4985217 611.973896,69.3490489 L629.31453,69.3490489 C628.344425,64.3368375 625.312845,61.5073633 620.785687,61.5073633 Z"></path>
        </g>
    </g>
</svg>